<svg width="885" height="913" viewBox="0 0 885 913" fill="none" xmlns="http://www.w3.org/2000/svg">
<mask id="path-1-outside-1_251_20" maskUnits="userSpaceOnUse" x="396.469" y="34" width="86" height="95" fill="black">
<rect fill="white" x="396.469" y="34" width="86" height="95"/>
<path d="M401.869 124V82.912C401.869 54.24 414.797 39.008 439.245 39.008C463.821 39.008 476.621 54.24 476.621 82.912V124H467.405V82.528C467.405 59.232 458.189 47.712 439.245 47.712C420.301 47.712 411.085 59.104 411.085 82.528V124H401.869Z"/>
</mask>
<path d="M401.869 124V82.912C401.869 54.24 414.797 39.008 439.245 39.008C463.821 39.008 476.621 54.24 476.621 82.912V124H467.405V82.528C467.405 59.232 458.189 47.712 439.245 47.712C420.301 47.712 411.085 59.104 411.085 82.528V124H401.869Z" fill="#C8A20C"/>
<path d="M401.869 124H396.869V129H401.869V124ZM476.621 124V129H481.621V124H476.621ZM467.405 124H462.405V129H467.405V124ZM411.085 124V129H416.085V124H411.085ZM406.869 124V82.912H396.869V124H406.869ZM406.869 82.912C406.869 69.2325 409.964 59.6001 415.197 53.4477C420.312 47.4344 428.104 44.008 439.245 44.008V34.008C425.937 34.008 415.041 38.1976 407.58 46.9683C400.238 55.5999 396.869 67.9194 396.869 82.912H406.869ZM439.245 44.008C450.456 44.008 458.241 47.4382 463.336 53.4429C468.553 59.5912 471.621 69.2215 471.621 82.912H481.621C481.621 67.9305 478.289 55.6088 470.961 46.9731C463.512 38.1938 452.61 34.008 439.245 34.008V44.008ZM471.621 82.912V124H481.621V82.912H471.621ZM476.621 119H467.405V129H476.621V119ZM472.405 124V82.528H462.405V124H472.405ZM472.405 82.528C472.405 70.3592 470.021 60.3121 464.32 53.2448C458.449 45.9653 449.778 42.712 439.245 42.712V52.712C447.655 52.712 453.065 55.2187 456.537 59.5232C460.18 64.0399 462.405 71.4008 462.405 82.528H472.405ZM439.245 42.712C428.728 42.712 420.053 45.9228 414.173 53.1916C408.466 60.2478 406.085 70.3017 406.085 82.528H416.085C416.085 71.3303 418.312 63.9762 421.948 59.4804C425.413 55.1972 430.817 52.712 439.245 52.712V42.712ZM406.085 82.528V124H416.085V82.528H406.085ZM411.085 119H401.869V129H411.085V119Z" fill="black" mask="url(#path-1-outside-1_251_20)"/>
<rect x="324.688" y="100.96" width="235.625" height="103.923" fill="#E32525" stroke="black" stroke-width="5"/>
<path d="M442.5 910.5C685.121 910.5 882.5 742.441 882.5 534.337C882.5 326.233 685.121 158.175 442.5 158.175C199.879 158.175 2.5 326.233 2.5 534.337C2.5 742.441 199.879 910.5 442.5 910.5Z" fill="#E32525" stroke="black" stroke-width="5"/>
<mask id="mask0_251_20" style="mask-type:alpha" maskUnits="userSpaceOnUse" x="5" y="160" width="875" height="748">
<path d="M877.5 534.337C877.5 738.969 683.128 905.5 442.5 905.5C201.872 905.5 7.5 738.969 7.5 534.337C7.5 329.705 201.872 163.175 442.5 163.175C683.128 163.175 877.5 329.705 877.5 534.337Z" fill="#D03030" stroke="black" stroke-width="5"/>
</mask>
<g mask="url(#mask0_251_20)">
<path d="M1085.31 353.578C1085.31 392.541 1067.27 429.857 1034.23 464.016C1001.18 498.186 953.237 529.073 893.799 555.067C774.93 607.05 610.54 639.265 428.828 639.265C247.116 639.265 82.7259 607.05 -36.1425 555.067C-95.5804 529.073 -143.524 498.186 -176.573 464.016C-209.61 429.857 -227.656 392.541 -227.656 353.578C-227.656 314.615 -209.61 277.299 -176.573 243.141C-143.524 208.97 -95.5804 178.083 -36.1425 152.09C82.7259 100.106 247.116 67.8909 428.828 67.8909C610.54 67.8909 774.93 100.106 893.799 152.09C953.237 178.083 1001.18 208.97 1034.23 243.141C1067.27 277.299 1085.31 314.615 1085.31 353.578Z" fill="#FFFAFA" stroke="black" stroke-width="5"/>
</g>
</svg>
